HIERARCHY
ROOT hip
{
  OFFSET 0 0 0
  CHANNELS 6 Xposition Yposition Zposition Zrotation Yrotation Xrotation
  JOINT abdomen
  {
    OFFSET 0 20.6881 -0.73152
    CHANNELS 3 Zrotation Xrotation Yrotation
    JOINT chest
    {
      OFFSET 0 11.7043 -0.48768
      CHANNELS 3 Zrotation Xrotation Yrotation
      JOINT neck
      {
        OFFSET 0 22.1894 -2.19456
        CHANNELS 3 Zrotation Xrotation Yrotation
        JOINT head
        {
          OFFSET -0.24384 7.07133 1.2192
          CHANNELS 3 Zrotation Xrotation Yrotation
          JOINT leftEye
          {
            OFFSET 4.14528 8.04674 8.04672
            CHANNELS 3 Zrotation Xrotation Yrotation
            End Site
            {
              OFFSET 1 0 0
            }
          }
          JOINT rightEye
          {
            OFFSET -3.6576 8.04674 8.04672
            CHANNELS 3 Zrotation Xrotation Yrotation
            End Site
            {
              OFFSET 1 0 0
            }
          }
        }
      }
      JOINT rCollar
      {
        OFFSET -2.68224 19.2634 -4.8768
        CHANNELS 3 Zrotation Xrotation Yrotation
        JOINT rShldr
        {
          OFFSET -8.77824 -1.95073 1.46304
          CHANNELS 3 Zrotation Xrotation Yrotation
          JOINT rForeArm
          {
            OFFSET -28.1742 -1.7115 0.48768
            CHANNELS 3 Zrotation Xrotation Yrotation
            JOINT rHand
            {
              OFFSET -22.5879 0.773209 7.07136
              CHANNELS 3 Zrotation Xrotation Yrotation
              JOINT rThumb1
              {
                OFFSET -1.2192 -0.487915 3.41376
                CHANNELS 3 Zrotation Xrotation Yrotation
                JOINT rThumb2
                {
                  OFFSET -3.37035 -0.52449 3.41376
                  CHANNELS 3 Zrotation Xrotation Yrotation
                  End Site
                  {
                    OFFSET -1.78271 -1.18214 1.43049
                  }
                }
              }
              JOINT rIndex1
              {
                OFFSET -7.75947 0.938293 5.60832
                CHANNELS 3 Zrotation Xrotation Yrotation
                JOINT rIndex2
                {
                  OFFSET -2.54057 -0.884171 1.56538
                  CHANNELS 3 Zrotation Xrotation Yrotation
                  End Site
                  {
                    OFFSET -1.62519 -0.234802 1.16502
                  }
                }
              }
              JOINT rMid1
              {
                OFFSET -8.24714 1.18213 3.41376
                CHANNELS 3 Zrotation Xrotation Yrotation
                JOINT rMid2
                {
                  OFFSET -3.10165 -0.590103 1.0647
                  CHANNELS 3 Zrotation Xrotation Yrotation
                  End Site
                  {
                    OFFSET -2.48547 -0.328903 0.83742
                  }
                }
              }
              JOINT rRing1
              {
                OFFSET -8.82822 0.546677 1.51678
                CHANNELS 3 Zrotation Xrotation Yrotation
                JOINT rRing2
                {
                  OFFSET -2.60934 -0.819778 -0.0198488
                  CHANNELS 3 Zrotation Xrotation Yrotation
                  End Site
                  {
                    OFFSET -2.33842 -0.294052 0.168128
                  }
                }
              }
              JOINT rPinky1
              {
                OFFSET -8.27202 -0.0477905 -0.4584
                CHANNELS 3 Zrotation Xrotation Yrotation
                JOINT rPinky2
                {
                  OFFSET -1.82734 -0.647385 -0.700984
                  CHANNELS 3 Zrotation Xrotation Yrotation
                  End Site
                  {
                    OFFSET -1.69225 -0.51767 -0.607171
                  }
                }
              }
            }
          }
        }
      }
      JOINT lCollar
      {
        OFFSET 2.68224 19.2634 -4.8768
        CHANNELS 3 Zrotation Xrotation Yrotation
        JOINT lShldr
        {
          OFFSET 8.77824 -1.95073 1.46304
          CHANNELS 3 Zrotation Xrotation Yrotation
          JOINT lForeArm
          {
            OFFSET 28.1742 -1.7115 0.48768
            CHANNELS 3 Zrotation Xrotation Yrotation
            JOINT lHand
            {
              OFFSET 22.5879 0.773209 7.07136
              CHANNELS 3 Zrotation Xrotation Yrotation
              JOINT lThumb1
              {
                OFFSET 1.2192 -0.487915 3.41376
                CHANNELS 3 Zrotation Xrotation Yrotation
                JOINT lThumb2
                {
                  OFFSET 3.37035 -0.52449 3.41376
                  CHANNELS 3 Zrotation Xrotation Yrotation
                  End Site
                  {
                    OFFSET 1.78271 -1.18214 1.43049
                  }
                }
              }
              JOINT lIndex1
              {
                OFFSET 7.75947 0.938293 5.60832
                CHANNELS 3 Zrotation Xrotation Yrotation
                JOINT lIndex2
                {
                  OFFSET 2.54057 -0.884171 1.56538
                  CHANNELS 3 Zrotation Xrotation Yrotation
                  End Site
                  {
                    OFFSET 1.62519 -0.234802 1.16502
                  }
                }
              }
              JOINT lMid1
              {
                OFFSET 8.24714 1.18213 3.41376
                CHANNELS 3 Zrotation Xrotation Yrotation
                JOINT lMid2
                {
                  OFFSET 3.10165 -0.590103 1.0647
                  CHANNELS 3 Zrotation Xrotation Yrotation
                  End Site
                  {
                    OFFSET 2.48547 -0.328903 0.83742
                  }
                }
              }
              JOINT lRing1
              {
                OFFSET 8.82822 0.546677 1.51678
                CHANNELS 3 Zrotation Xrotation Yrotation
                JOINT lRing2
                {
                  OFFSET 2.60934 -0.819778 -0.0198488
                  CHANNELS 3 Zrotation Xrotation Yrotation
                  End Site
                  {
                    OFFSET 2.33842 -0.294052 0.168128
                  }
                }
              }
              JOINT lPinky1
              {
                OFFSET 8.27202 -0.0477905 -0.4584
                CHANNELS 3 Zrotation Xrotation Yrotation
                JOINT lPinky2
                {
                  OFFSET 1.82734 -0.647385 -0.700984
                  CHANNELS 3 Zrotation Xrotation Yrotation
                  End Site
                  {
                    OFFSET 1.69225 -0.51767 -0.607171
                  }
                }
              }
            }
          }
        }
      }
    }
  }
  JOINT rButtock
  {
    OFFSET -8.77824 4.35084 1.2192
    CHANNELS 3 Zrotation Xrotation Yrotation
    JOINT rThigh
    {
      OFFSET 0 -1.70687 -2.19456
      CHANNELS 3 Zrotation Xrotation Yrotation
      JOINT rShin
      {
        OFFSET 0 -36.8199 0.73152
        CHANNELS 3 Zrotation Xrotation Yrotation
        JOINT rFoot
        {
          OFFSET 0.73152 -45.1104 -5.12064
          CHANNELS 3 Zrotation Xrotation Yrotation
          End Site
          {
            OFFSET -1.1221 -3.69964 12.103
          }
        }
      }
    }
  }
  JOINT lButtock
  {
    OFFSET 8.77824 4.35084 1.2192
    CHANNELS 3 Zrotation Xrotation Yrotation
    JOINT lThigh
    {
      OFFSET 0 -1.70687 -2.19456
      CHANNELS 3 Zrotation Xrotation Yrotation
      JOINT lShin
      {
        OFFSET 0 -36.8199 0.73152
        CHANNELS 3 Zrotation Xrotation Yrotation
        JOINT lFoot
        {
          OFFSET -0.73152 -45.1104 -5.12064
          CHANNELS 3 Zrotation Xrotation Yrotation
          End Site
          {
            OFFSET 1.1221 -3.69964 12.103
          }
        }
      }
    }
  }
}
MOTION
Frames:	4
Frame Time:	0.03333
2.7033000108785927 45.48440170288086 -0.5369999809190631 -161.87299847602844 83.63989770412445 -157.2349977493286 -3.9134398475289345 14.686899483203888 20.625499337911606 -4.565259888768196 -12.698899805545807 5.131790041923523 0.6888579949736595 13.912899792194366 12.723600268363953 -1.24163000844419 -19.098199903964996 24.943900108337402 0.0 0.0 0.0 0.0 0.0 0.0 0.0 0.0 0.0 -9.487340077757835 48.00550103187561 78.15629839897156 -27.52460092306137 -42.42039889097214 88.38019788265228 -0.08385679742787033 8.231810107827187 1.1650100257247686 3.325340003357269e-11 -4.064588665642077e-09 -9.72022462519817e-10 5.4996007747831754e-11 -7.042046945571201e-09 -1.688249540165998e-09 3.325340003357269e-11 -4.064588665642077e-09 -9.72022462519817e-10 7.7309102565050125 5.474880114197731 0.41731400415301323 3.325340003357269e-11 -4.064588665642077e-09 -9.72022462519817e-10 2.905540131032467 0.9651830233633518 0.102901995414868 3.325340003357269e-11 -4.064588665642077e-09 -9.72022462519817e-10 10.27859978377819 0.7318009994924068 0.025912300043273717 3.325340003357269e-11 -4.064588665642077e-09 -9.72022462519817e-10 2.221670038998127 -0.733487019315362 -0.2089200052432716 0.0 0.0 0.0 -54.80960011482239 9.096219688653946 -17.28869989514351 26.411199867725372 -45.43049991130829 -94.35040354728699 2.2612800635397434 -38.6234986782074 6.447109803557396 9.733014394441852e-10 -2.0463630789890885e-11 7.673861546209082e-10 1.6549961401324254e-09 2.5579538487363607e-11 1.3608314475277439e-09 9.733014394441852e-10 -2.0463630789890885e-11 7.673861546209082e-10 -7.7309102565050125 5.474880114197731 -0.41731400415301323 9.733014394441852e-10 -2.0463630789890885e-11 7.673861546209082e-10 -2.905540131032467 0.9651830233633518 -0.102901995414868 9.733014394441852e-10 -2.0463630789890885e-11 7.673861546209082e-10 -10.27859978377819 0.7318009994924068 -0.025912300043273717 9.733014394441852e-10 -2.0463630789890885e-11 7.673861546209082e-10 -2.221670038998127 -0.733487019315362 0.2089200052432716 0.0 0.0 0.0 -61.835201382637024 -43.73600095510483 -48.574697971343994 -171.8269979953766 82.76249885559082 173.77599835395813 -4.233069978654385 -27.719101309776306 -8.478230014443398 0.0 0.0 0.0 75.66490173339844 -53.70500206947327 56.18290185928345 167.77600407600403 84.89390015602112 -168.8890027999878 -2.5862799771130085 -25.61340093612671 -2.1354899927973747
2.625600014347583 45.194698333740234 -0.6069999812170863 -161.04099869728088 83.62409949302673 -156.3480019569397 -3.780990019440651 14.791000038385391 20.675299912691116 -4.62462991476059 -12.766400277614594 5.139380022883415 0.6803200207650661 14.020999521017075 12.789900451898575 -1.2813899852335453 -19.251800626516342 25.062898993492126 0.0 0.0 0.0 0.0 0.0 0.0 0.0 0.0 0.0 -9.974769875407219 48.27320158481598 78.71929943561554 -27.49939888715744 -42.50799983739853 88.54650020599365 -0.09176210034638643 8.60854983329773 1.2191299628466368 -3.696243311424041e-10 -1.0710152764659142e-08 -2.169144863728434e-09 -6.458833468059311e-10 -1.853493358794367e-08 -3.7550762499449775e-09 -3.696243311424041e-10 -1.0710152764659142e-08 -2.169144863728434e-09 7.7309102565050125 5.474880114197731 0.41731400415301323 -3.696243311424041e-10 -1.0710152764659142e-08 -2.169144863728434e-09 2.905540131032467 0.9651830233633518 0.102901995414868 -3.696243311424041e-10 -1.0710152764659142e-08 -2.169144863728434e-09 10.27859978377819 0.7318009994924068 0.025912300043273717 -3.696243311424041e-10 -1.0710152764659142e-08 -2.169144863728434e-09 2.221670038998127 -0.733487019315362 -0.2089200052432716 0.0 0.0 0.0 -55.3715980052948 8.399049863219261 -17.315399944782257 26.393100321292877 -45.47010004520416 -94.43220019340515 2.2179600410163403 -38.3215007185936 6.377450153231621 2.318785163879511e-09 -6.829736776126083e-10 1.2892087397631258e-09 3.963549488616991e-09 -1.0615508472255897e-09 2.291926648467779e-09 2.318785163879511e-09 -6.829736776126083e-10 1.2892087397631258e-09 -7.7309102565050125 5.474880114197731 -0.41731400415301323 2.318785163879511e-09 -6.829736776126083e-10 1.2892087397631258e-09 -2.905540131032467 0.9651830233633518 -0.102901995414868 2.318785163879511e-09 -6.829736776126083e-10 1.2892087397631258e-09 -10.27859978377819 0.7318009994924068 -0.025912300043273717 2.318785163879511e-09 -6.829736776126083e-10 1.2892087397631258e-09 -2.221670038998127 -0.733487019315362 0.2089200052432716 0.0 0.0 0.0 -62.484902143478394 -43.85159879922867 -49.134501814842224 -172.2189974784851 82.357297539711 174.1860008239746 -4.185390025377274 -27.765200436115265 -8.404819965362549 0.0 0.0 0.0 76.72640204429626 -53.78629982471466 57.13590145111084 168.83700013160706 84.36819791793823 -169.95999813079834 -2.586819939315319 -25.696299970149994 -2.1100200712680817
2.495900009293109 44.91680145263672 -0.6389999827370048 -161.24099493026733 83.66550207138062 -156.46300435066223 -3.6699700355529785 14.880499988794327 20.73110058903694 -4.666049927473068 -12.842400670051575 5.149829909205437 0.7158980146050453 14.063200056552887 12.83209964632988 -1.340779960155487 -19.334499835968018 25.13069987297058 0.0 0.0 0.0 0.0 0.0 0.0 0.0 0.0 0.0 -10.31350001692772 48.55049908161163 79.0610021352768 -27.481200098991394 -42.57010102272034 88.6650002002716 -0.09997370420023799 8.982630148530006 1.2729700282216072 -1.880096078821225e-10 -9.231655440089526e-09 -2.0054358174093068e-09 -3.325340003357269e-10 -1.598976950845099e-08 -3.4583536034915596e-09 -1.880096078821225e-10 -9.231655440089526e-09 -2.0054358174093068e-09 7.7309102565050125 5.474880114197731 0.41731400415301323 -1.880096078821225e-10 -9.231655440089526e-09 -2.0054358174093068e-09 2.905540131032467 0.9651830233633518 0.102901995414868 -1.880096078821225e-10 -9.231655440089526e-09 -2.0054358174093068e-09 10.27859978377819 0.7318009994924068 0.025912300043273717 -1.880096078821225e-10 -9.231655440089526e-09 -2.0054358174093068e-09 2.221670038998127 -0.733487019315362 -0.2089200052432716 0.0 0.0 0.0 -55.81969857215881 7.778410166501999 -17.413000166416168 26.388800740242004 -45.47960042953491 -94.45189833641052 2.2228999994695187 -38.356299698352814 6.385439783334732 1.7752199710230343e-09 -4.5787373892380856e-10 1.0436451702844352e-09 3.0311753107525874e-09 -6.983214007050265e-10 1.8519585864851251e-09 1.7752199710230343e-09 -4.5787373892380856e-10 1.0436451702844352e-09 -7.7309102565050125 5.474880114197731 -0.41731400415301323 1.7752199710230343e-09 -4.5787373892380856e-10 1.0436451702844352e-09 -2.905540131032467 0.9651830233633518 -0.102901995414868 1.7752199710230343e-09 -4.5787373892380856e-10 1.0436451702844352e-09 -10.27859978377819 0.7318009994924068 -0.025912300043273717 1.7752199710230343e-09 -4.5787373892380856e-10 1.0436451702844352e-09 -2.221670038998127 -0.733487019315362 0.2089200052432716 0.0 0.0 0.0 -63.16919803619385 -43.99360030889511 -49.76509988307953 -172.58800506591797 81.93879783153534 174.57899808883667 -4.192859977483749 -27.747401297092438 -8.431770130991936 0.0 0.0 0.0 77.87960171699524 -53.88639986515045 58.16620230674744 169.69200253486633 83.85439932346344 -170.82000017166138 -2.636289931833744 -25.772700011730194 -2.169189937412739
2.389800008852035 44.5984992980957 -0.7119999816641212 -159.13199543952942 83.5612016916275 -154.16600346565247 -3.5803698375821114 14.955199509859085 20.793000608682632 -4.689500145614147 -12.926800400018692 5.163160152733326 0.795799009501934 14.039600640535355 12.849999368190765 -1.4203200303018093 -19.346500039100647 25.146999657154083 0.0 0.0 0.0 0.0 0.0 0.0 0.0 0.0 0.0 -10.499200075864792 48.84099841117859 79.17610108852386 -27.47039884328842 -42.607099413871765 88.73530089855194 -0.10847899946384132 9.354040324687958 1.3265400286763906 5.793765467387857e-10 3.6834535421803594e-10 -4.706635081674904e-10 9.937650702340761e-10 5.908873390580993e-10 -8.0831341620069e-10 5.793765467387857e-10 3.6834535421803594e-10 -4.706635081674904e-10 7.7309102565050125 5.474880114197731 0.41731400415301323 5.793765467387857e-10 3.6834535421803594e-10 -4.706635081674904e-10 2.905540131032467 0.9651830233633518 0.102901995414868 5.793765467387857e-10 3.6834535421803594e-10 -4.706635081674904e-10 10.27859978377819 0.7318009994924068 0.025912300043273717 5.793765467387857e-10 3.6834535421803594e-10 -4.706635081674904e-10 2.221670038998127 -0.733487019315362 -0.2089200052432716 0.0 0.0 0.0 -56.15569889545441 7.234790101647377 -17.580500096082687 26.398301124572754 -45.45909762382507 -94.40930485725403 2.276449967175722 -38.72800022363663 6.471379771828651 -6.573941391252447e-10 6.573941391252447e-10 3.069544618483633e-11 -1.1395684396120487e-09 1.1178258318977896e-09 4.092726157978177e-11 -6.573941391252447e-10 6.573941391252447e-10 3.069544618483633e-11 -7.7309102565050125 5.474880114197731 -0.41731400415301323 -6.573941391252447e-10 6.573941391252447e-10 3.069544618483633e-11 -2.905540131032467 0.9651830233633518 -0.102901995414868 -6.573941391252447e-10 6.573941391252447e-10 3.069544618483633e-11 -10.27859978377819 0.7318009994924068 -0.025912300043273717 -6.573941391252447e-10 6.573941391252447e-10 3.069544618483633e-11 -2.221670038998127 -0.733487019315362 0.2089200052432716 0.0 0.0 0.0 -63.890100717544556 -44.1595995426178 -50.46799957752228 -172.93399930000305 81.50669932365417 174.9559986591339 -4.2552900686860085 -27.665899693965912 -8.559000045061111 0.0 0.0 0.0 79.12719905376434 -54.00209963321686 59.27579998970032 170.39199471473694 83.35299789905548 -171.52199864387512 -2.735059931874275 -25.84260106086731 -2.3131499625742435
